<?xml version="1.0" encoding="utf-8"?>
<!-- Generator: Adobe Illustrator 16.0.0, SVG Export Plug-In . SVG Version: 6.00 Build 0)  -->
<!DOCTYPE svg PUBLIC "-//W3C//DTD SVG 1.1//EN" "http://www.w3.org/Graphics/SVG/1.1/DTD/svg11.dtd">
<svg version="1.1" id="Layer_1" xmlns="http://www.w3.org/2000/svg" xmlns:xlink="http://www.w3.org/1999/xlink" x="0px" y="0px"
	 width="46.8px" height="17.5px" viewBox="0 0 46.8 17.5" enable-background="new 0 0 46.8 17.5" xml:space="preserve">
<g>
	<g>
		<path d="M24.779,9.381c-0.129,0-0.227-0.034-0.293-0.102c-0.047-0.047-0.065-0.101-0.073-0.138
			c-0.115-0.037-0.501-0.147-1.018-0.147c-0.518,0-0.903,0.11-1.018,0.147c-0.007,0.038-0.026,0.091-0.073,0.138
			c-0.066,0.068-0.165,0.102-0.293,0.102c-0.151,0-0.261-0.079-0.303-0.216c-0.035-0.115-0.012-0.249,0.05-0.333
			c-0.067-0.08-0.088-0.207-0.052-0.345c0.046-0.179,0.189-0.362,0.403-0.368c0.008,0,0.016,0,0.023,0
			c0.136,0,0.236,0.037,0.298,0.109c0.048,0.057,0.071,0.132,0.068,0.227c0.458-0.071,0.595-0.089,0.897-0.089
			s0.439,0.018,0.897,0.089c-0.003-0.094,0.021-0.17,0.069-0.227c0.062-0.073,0.161-0.109,0.297-0.109c0.008,0,0.016,0,0.023,0
			c0.215,0.006,0.356,0.189,0.403,0.368c0.035,0.138,0.016,0.265-0.053,0.345c0.063,0.084,0.086,0.218,0.05,0.333
			C25.041,9.302,24.931,9.381,24.779,9.381z"/>
	</g>
	<path fill="#F1F2F2" d="M23.395,8.911c-0.639,0-1.075,0.163-1.075,0.163s0.004,0.224-0.31,0.224c-0.314,0-0.305-0.395-0.162-0.49
		c-0.209-0.125-0.067-0.638,0.262-0.647s0.341,0.2,0.317,0.348c0.525-0.083,0.654-0.101,0.967-0.101s0.442,0.018,0.966,0.101
		c-0.023-0.147-0.01-0.357,0.318-0.348c0.329,0.009,0.471,0.523,0.262,0.647c0.143,0.095,0.152,0.49-0.162,0.49
		s-0.309-0.224-0.309-0.224S24.034,8.911,23.395,8.911z"/>
	<path d="M21.999,8.75c0,0-0.249,0.007-0.249,0.302C21.75,8.781,21.885,8.761,21.999,8.75z"/>
	<path d="M25.04,9.01c0,0-0.051-0.238-0.313-0.348c0.076,0,0.305,0.17,0.343,0.348C25.093,9.12,25.04,9.01,25.04,9.01z"/>
	<path d="M21.875,8.901c0,0-0.109,0.113-0.052,0.237c0.057,0.124,0.252,0.124,0.252,0.124S21.893,9.2,21.875,9.104
		C21.856,9.01,21.875,8.901,21.875,8.901z"/>
	<path d="M24.728,9.205c0,0,0.204,0.033,0.242-0.124c0.039-0.157-0.147-0.291-0.147-0.291s0.181,0.181,0.079,0.324
		C24.813,9.239,24.788,9.153,24.728,9.205z"/>
</g>
</svg>
