<?xml version="1.0" encoding="utf-8"?>
<!-- Generator: Adobe Illustrator 16.0.0, SVG Export Plug-In . SVG Version: 6.00 Build 0)  -->
<!DOCTYPE svg PUBLIC "-//W3C//DTD SVG 1.1//EN" "http://www.w3.org/Graphics/SVG/1.1/DTD/svg11.dtd">
<svg version="1.1" id="Layer_1" xmlns="http://www.w3.org/2000/svg" xmlns:xlink="http://www.w3.org/1999/xlink" x="0px" y="0px"
	 width="500px" height="200px" viewBox="0 0 500 200" enable-background="new 0 0 500 200" xml:space="preserve">
<g>
	<g>
		<path fill="#010101" d="M425.621,180.748c-16.376,0-28.785-4.231-37.214-12.927c-5.957-5.934-8.198-12.88-9.189-17.595
			c-14.64-4.736-63.776-18.628-129.544-18.628c-65.762,0-114.654,13.892-129.299,18.628c-0.868,4.969-3.289,11.661-9.246,17.595
			c-8.436,8.695-20.97,12.927-37.225,12.927c-19.228,0-33.188-10.051-38.53-27.415c-4.462-14.652-1.547-31.648,6.33-42.321
			c-8.498-10.177-11.167-26.311-6.572-43.871c5.831-22.707,24.006-45.977,51.18-46.718c1.058,0,2.047,0,2.921,0
			c17.307,0,30.032,4.715,37.903,13.834c6.079,7.256,8.999,16.755,8.625,28.853c58.201-9.056,75.693-11.298,113.912-11.298
			c38.466,0,55.831,2.242,114.16,11.298c-0.495-11.977,2.483-21.597,8.682-28.853c7.935-9.309,20.354-13.834,37.719-13.834
			c0.988,0,1.99,0,2.989,0c27.289,0.741,45.161,24.011,51.118,46.718c4.462,17.56,1.978,33.694-6.705,43.871
			c7.947,10.673,10.926,27.669,6.462,42.321C458.878,170.697,444.986,180.748,425.621,180.748z"/>
	</g>
	<path fill="#F2F2F2" d="M249.673,121.064c-81.155,0-136.555,20.723-136.555,20.723s0.557,28.427-39.335,28.427
		c-39.956,0-38.778-50.208-20.601-62.26c-26.554-15.871-8.562-81.08,33.257-82.195c41.819-1.185,43.366,25.374,40.33,44.177
		c66.693-10.551,83.075-12.783,122.905-12.783c39.698,0,56.084,2.232,122.599,12.783c-2.736-18.676-1.253-45.361,40.445-44.177
		c41.939,1.116,59.812,66.446,33.257,82.195c18.366,12.052,19.354,62.26-20.597,62.26c-39.708,0-39.214-28.427-39.214-28.427
		S331.067,121.064,249.673,121.064z"/>
	<path fill="#010101" d="M72.351,100.583c0,0-31.635,0.869-31.635,38.328C40.716,104.557,57.896,101.944,72.351,100.583z"/>
	<path fill="#010101" d="M458.878,133.575c0,0-6.692-30.204-39.951-44.159c9.684,0,38.963,21.596,43.678,44.159
		C465.583,147.605,458.878,133.575,458.878,133.575z"/>
	<path fill="#010101" d="M56.591,119.752c0,0-13.829,14.328-6.629,30.223c7.256,15.639,32.074,15.639,32.074,15.639
		s-23.144-7.843-25.444-20.123C54.176,133.575,56.591,119.752,56.591,119.752z"/>
	<path fill="#010101" d="M419.18,158.414c0,0,25.807,4.21,30.763-15.777c4.969-19.964-18.858-36.971-18.858-36.971
		s23.079,23.032,10.176,41.202C429.842,162.739,426.874,151.722,419.18,158.414z"/>
</g>
<path fill="#BE1E2D" d="M434.165,84.419c-2.772-2.306-7.372-3.364-10.926-3.364c-0.011,0-0.021,0-0.045,0
	c-4.819,0.253-6.936,3.329-8.235,6.745c-0.586-0.741-1.138-1.488-1.886-2.167c-2.678-2.335-6.289-4.134-11.143-5.376
	c-4.76-1.144-8.97-1.036-12.569,0.386c-0.713,0.293-1.252,0.741-1.874,1.121c-2.289-3.416-6.612-5.646-13.95-7.169
	c-8.476-1.88-14.72-1.082-19.652,2.012c-0.277-0.575-0.437-1.22-0.816-1.708c-2.427-3.405-6.911-5.435-14.467-6.567
	c-7.359-1.19-15.686-0.293-20.712,3.956c-0.034,0.023-0.045,0.064-0.081,0.093c-1.206-2.421-2.955-4.388-5.358-5.964
	c-2.979-1.879-6.808-3.075-11.776-3.507c-4.702-0.322-8.98,0.454-12.27,2.449c-1.656,1.036-2.841,2.357-3.853,3.761
	c-2.874-3.57-6.797-6.042-11.868-7.256c-2.335-0.511-4.874-0.707-7.071-0.77l-1.709-0.029l-3.323,0.063
	c-1.873,0.029-6.279,0.276-7.399,0.506c-3.893,0.701-6.371,2.806-7.637,6.635c-0.557,1.909-0.792,4.37-0.879,9.085
	c-2.467-0.091-5.566-0.068-8.452,0.058c-0.139,0.006-0.167,0.012-0.294,0.017c-1.346-5.26-3.72-10.321-8.854-13.207
	c-2.887-1.697-6.515-2.588-10.494-2.588c-0.092,0-1.173,0.023-1.259,0.029c-3.375,0.156-6.675,0.972-9.517,2.329
	c-6.014,2.829-9.688,8.113-11.085,15.519c-2.713,0.156-6.831,0.449-9.47,0.789c-0.235,0.029-0.379,0.046-0.587,0.075
	c-1.058-2.467-2.323-4.802-3.938-6.716c-3.737-4.434-8.809-6.883-15.18-7.286c-0.086-0.005-1.138-0.029-1.225-0.029
	c-2.03,0-4.093,0.219-5.911,0.477c-1.748,0.242-3.277,0.552-4.945,0.897c-1.874,0.345-6.204,1.352-7.244,1.765
	c-1.961,0.708-3.415,1.782-4.497,3.18c-0.685-0.46-1.322-0.955-2.242-1.23c-0.518-0.137-2.105-0.31-2.634-0.31
	c-2.11,0-5.531,0.517-6.313,0.667c-2.254,0.552-4.952,1.615-6.624,4.438c-1.611-1.167-4.192-1.915-6.348-1.679
	c-1.104,0.115-4.922,0.604-7.613,1.829c-1.926,0.816-3.363,1.96-4.358,3.363c-1.23-0.782-2.668-1.346-4.624-1.346h-0.005
	c-2.686,0.052-6.526,1.024-8.734,2.156c-1.512,0.702-2.65,1.628-3.559,2.686c-1.041-0.282-2.075-0.443-3.035-0.443
	c-0.535,0-1.134,0.023-1.858,0.098c-4.905,0.523-13.69,3.087-14.623,3.364c-0.707,0.2-6.272,2.133-7.498,2.783
	c-3.473,1.84-5.192,4.588-5.25,8.383c-0.046,2.392,0.553,5.048,2.587,11.432c3.422,10.372,6.106,17.26,8.176,20.997
	c0.966,1.783,3.899,7.233,9.827,7.233c1.15,0,2.128-0.206,3.158-0.437c2.604-0.701,5.548-1.668,7.75-3.656
	c3.968-3.817,2.415-8.889,0.777-14.216c-0.023-0.078-0.046-0.159-0.069-0.24c1.892-0.633,3.663-1.276,4.91-1.862
	c0.013,0,0.018-0.013,0.03-0.023c0.667,1.852,1.344,3.588,2.012,5.003c0.919,1.896,3.726,7.67,9.947,7.67
	c0.823,0,1.656-0.115,2.686-0.298c2.667-0.588,5.68-1.415,7.721-3.151c0.656-0.541,0.961-1.185,1.381-1.794
	c1.31,0.815,2.811,1.436,4.749,1.436c0.741,0,1.489-0.091,2.392-0.24c2.691-0.494,5.733-1.231,7.837-2.932
	c0.563-0.438,1.035-0.921,1.427-1.415c2.087,1.069,3.875,1.208,5.047,1.185c1.15-0.058,5.124-0.345,7.562-1.428
	c2.122-0.781,3.249-2.058,4.037-3.494c1.454,1.148,3.197,2.082,5.658,2.082c0.247,0,1.437-0.07,1.679-0.104
	c2.024-0.254,4.094-0.609,5.922-1.357c0.621,0.013,1.403-0.034,2.117-0.092c3.231-0.253,9.377-1.438,14.293-6.532
	c3.664-3.829,6.095-9.516,6.866-15.375c2.167-0.098,5.013-0.316,7.284-0.53c0.086,1.277,0.179,2.53,0.271,3.657l0.189,2.755
	c0.281,4.686,0.518,8.723,4.387,11.263c2.237,1.53,4.875,1.841,6.693,1.841c2.099,0,4.238-0.413,6.054-1.185
	c2.352-1.012,3.87-2.542,4.854-4.231c2.449,3.541,6.819,4.817,11.89,4.024c3.818-0.713,8.344-2.531,9.396-10.412
	c0.367-2.731,0.374-6.314,0.171-9.971c1.404,0.041,2.916,0.064,4.4,0.064l2.42-0.023c0.166,3.307,0.425,6.595,0.851,9.072
	c1.248,6.718,4.318,9.925,10.201,10.408l1.919,0.034c1.588,0,2.915-0.115,4.072-0.356c0.741,0.139,1.448,0.207,2.086,0.265
	c0.696,0.058,1.438,0.104,2.22,0.104c3.371,0,8.35-0.714,12.95-4.105c1.022-0.748,1.954-1.68,2.874-2.646
	c1.138,2.474,2.955,4.738,5.957,6.43c3.023,1.689,6.946,2.655,10.765,2.655c1.736,0,3.402-0.194,5.002-0.586
	c3.714-0.932,6.716-3.07,9.13-6.151c1.449,2.252,3.141,4.334,5.324,6.013c5.992,4.623,13.984,6.062,20.171,6.773
	c0.759,0.104,1.449,0.173,2.093,0.173c2.382,0,5.418-1,7.511-4.622c0.792,0.932,1.553,1.896,2.507,2.713
	c5.681,4.911,13.615,6.82,19.86,7.937c0.941,0.173,1.805,0.274,2.586,0.274c1.875,0,4.245-0.586,6.245-2.748
	c0.609,0.758,1.138,1.529,1.978,2.207c3.658,2.876,8.959,4.657,13.823,4.657c0.162,0,1.334-0.044,1.483-0.057
	c2.575-0.207,4.911-1.058,7.084-2.31c0.011,0.505-0.058,0.988,0.047,1.506c0.458,2.23,1.736,4.197,3.541,5.484
	c1.53,1.127,3.541,1.898,5.623,2.162c0.253,0.034,1.645,0.126,1.898,0.126c2.024,0,3.818-0.539,5.186-1.506
	c2.14-1.415,3.658-3.91,3.957-6.094c0.298-1.185,0.321-2.369,0.045-3.521c1.174-1.783,2.128-4.221,3.415-7.51
	c2.162-5.438,5.809-14.654,7.785-20.268C436.971,94.269,438.925,88.778,434.165,84.419z"/>
<g>
	<path fill="#F26522" d="M107.823,86.357c-1.708-5.187-2.617-7.147-5.699-7.147c0,0-0.006,0-0.012,0
		c-1.983,0.051-5.174,0.88-6.923,1.788c-2.144,1.012-3.03,2.318-3.064,4.428c-0.103,1.823,0.362,4.261,1.92,10.04
		c0.5,1.875,1.104,3.979,1.743,6.13c-0.247-0.753-0.581-1.535-1.041-2.077c-0.575-0.804-1.397-1.195-2.496-1.195
		c-0.867,0-2.052,0.224-4.197,0.782c-1.852,0.459-4.519,1.248-7.325,2.156c-0.552-1.546-1.081-3.013-1.587-4.341l1.167-0.316
		c2.243-0.616,4.382-1.196,5.951-1.679c3.83-1.116,5.681-1.737,6.003-3.761c0.265-1.57-0.432-3.646-0.718-4.394
		c-0.518-1.604-1.443-3.082-4.652-3.082c-0.419,0-0.89,0.023-1.437,0.081c-3.669,0.408-10.396,2.271-13.771,3.301
		c-0.852,0.247-5.917,2.11-6.596,2.484c-2.006,1.092-2.828,2.42-2.845,4.588c-0.006,1.833,0.586,4.249,2.449,9.937
		c3.358,9.911,6.061,16.719,8.032,20.229c1.869,3.415,3.634,4.864,5.912,4.864c0.707,0,1.344-0.139,2.029-0.301
		c2.903-0.793,4.675-1.585,5.784-2.61c1.697-1.679,1.387-3.805-0.488-9.752c-0.396-1.3-0.885-2.793-1.42-4.38
		c3.013-0.944,6.405-2.001,8.469-3.013c3.577-1.75,3.686-3.703,3.289-5.497c-0.068-0.38-0.219-1.06-0.425-1.743
		c1.593,5.331,3.45,10.942,5.025,14.254c1.784,3.611,3.56,5.142,5.958,5.142c0.563,0,1.138-0.092,1.765-0.207
		c3.001-0.68,4.737-1.357,5.778-2.268c1.875-1.574,1.667-3.724,0.046-9.785C112.882,102.895,109.771,92.078,107.823,86.357z"/>
	<path fill="#F26522" d="M143.553,80.786c-1.236-5.813-1.938-8.084-4.473-8.855c-0.357-0.098-0.806-0.144-1.403-0.144
		c-1.839,0-4.801,0.465-5.256,0.563c-2.563,0.632-5.042,1.759-4.772,7.831c0.052,1.024,0.173,2.237,0.362,3.651
		c-0.845-1.449-1.673-2.812-2.432-3.944c-2.22-3.29-3.979-4.686-5.871-4.686c-0.293,0-0.558,0.029-0.736,0.063
		c-1.909,0.207-4.577,0.725-6.313,1.523c-2.18,0.949-3.105,2.22-3.192,4.331c-0.161,1.788,0.23,4.243,1.611,10.096
		c1.575,6.682,4.145,16.151,6.215,20.856c1.696,3.736,3.479,5.324,5.957,5.324c0.506,0,1.012-0.058,1.581-0.149
		c2.133-0.415,4.502-0.99,5.83-2.104c1.783-1.426,1.783-3.393,0.621-8.58c0.828,1.289,1.576,2.45,2.18,3.451
		c2.265,3.656,4.922,3.91,6.083,3.92c1.495-0.08,4.502-0.413,6.227-1.161c2.846-1.093,2.657-3.357,1.897-8.854
		C146.784,97.983,144.835,86.828,143.553,80.786z"/>
	<path fill="#F26522" d="M408.934,85.483c-2.656-2.392-6.117-3.663-8.521-4.295l-0.646-0.173c-3.886-0.948-7.197-0.919-9.83,0.127
		c-3.141,1.254-5.372,4.065-7.234,9.125c-1.059,2.943-2.036,6.883-2.761,10.746c0.128-3.248-0.827-6.29-3.863-7.388
		c-1.828-0.719-7.199-2.11-10.546-2.11c-1.276,0-2.161,0.196-2.817,0.626c-1.057,0.713-1.747,2.88-1.852,4.589
		c0.023-0.345-0.011-0.69,0.047-1.03c0.528-3.34,2.61-6.393,5.221-7.595c2.07-1.023,5.117-0.5,7.646,0.241l0.954,0.311
		c2.555,0.828,5.037,1.339,6.661,0.235c1.125-0.736,1.987-2.104,2.31-3.662c0.334-1.633,0.034-3.25-0.806-4.521
		c-1.504-2.42-5.081-4.162-11.245-5.485c-7.786-1.782-13.272-1.104-17.297,1.916c-4.116,3.059-6.727,8.619-7.9,13.806
		c-0.597-1.84-1.736-3.347-3.748-3.95c-1.933-0.633-6.566-1.513-9.73-1.513c-1.734,0-2.885,0.259-3.633,0.817
		c-0.287,0.218-0.505,0.621-0.714,1.012c0.795-2.243,2.059-4.267,3.865-5.25c1.99-1.093,5.176-0.753,7.613-0.201l0.999,0.264
		c2.633,0.69,5.073,1.023,6.59-0.167c1.08-0.793,1.852-2.203,2.095-3.772c0.24-1.65-0.151-3.255-1.07-4.49
		c-1.657-2.318-5.303-3.847-11.488-4.802c-7.832-1.328-13.237-0.316-17.079,2.921c-2.391,2.018-4.116,4.984-5.346,8.17
		c0.034-1.087,0.092-2.202,0.034-3.168c-0.287-5.163-1.841-8.308-5.209-10.539c-2.358-1.506-5.474-2.473-9.027-2.806
		c-0.011,0-0.62-0.058-0.633-0.058c-3.761-0.259-7.153,0.316-9.567,1.782c-2.829,1.76-4.531,4.899-5.51,10.201
		c-0.08,0.443-0.125,0.995-0.195,1.472c-0.481-2.513-1.253-4.928-2.403-6.929c-2.313-3.991-5.807-6.503-10.73-7.693
		c-2.229-0.5-4.621-0.627-6.242-0.685c-1.651-0.069-3.077-0.012-4.177,0.023l-0.603,0.017c-1.385,0.017-5.41,0.173-6.642,0.437
		c-2.265,0.415-3.466,1.42-4.168,3.536c-0.432,1.507-0.672,3.561-0.736,10.109c-0.005,0.92,0.006,1.99,0.006,3.001
		c-0.799-0.494-1.783-0.764-2.979-0.828c-2.317-0.19-6.607-0.115-9.033-0.005l-0.449,0.017c-2.335,0.091-2.755,0.103-3.192,0.293
		c-0.367,0.121-0.437,0.541-0.69,0.776c-0.982-6.015-2.599-11.971-7.67-14.846c-2.444-1.437-5.744-2.087-9.268-1.955
		c-2.777,0.144-5.474,0.811-7.786,1.926c-4.882,2.317-7.843,6.831-8.797,13.386c-0.167,1.075-0.242,2.226-0.316,3.375
		c-0.782-0.581-1.731-0.845-2.789-0.845l-0.621,0.012c-2.438,0.017-6.813,0.5-9.004,0.782c-2.742,0.333-3.162,0.385-3.6,0.621
		c-0.235,0.097-0.23,0.402-0.415,0.546c-0.919-3.496-2.449-6.832-4.53-9.304c-2.961-3.53-6.86-5.387-11.938-5.692
		c-2.207-0.075-4.594,0.184-6.284,0.425c-1.69,0.242-3.156,0.546-4.26,0.777l-0.477,0.103c-1.427,0.271-5.331,1.127-6.492,1.593
		c-2.168,0.8-3.185,2.002-3.507,4.204c-0.162,1.559-0.041,3.628,1.063,10.097c1.156,6.756,3.128,16.353,4.899,21.178
		c1.506,4.001,3.289,5.703,5.956,5.703c0.369,0,0.736-0.023,1.156-0.07c1.955-0.251,4.106-0.62,5.555-1.448
		c0.748,0.104,1.64,0.07,2.611-0.011c2.581-0.22,7.48-1.185,11.326-5.239c3.542-3.748,5.796-9.717,5.876-15.582
		c0.006-0.419-0.08-0.856-0.102-1.283c0.563,0.139,1.183,0.19,1.868,0.19l0.937-0.017c2.381-0.063,6.751-0.414,9.436-0.708
		c1.369-0.155,2.41-0.425,3.226-0.88c0.069,3.134,0.312,6.205,0.524,8.78l0.2,2.83c0.265,4.157,0.403,6.451,2.456,7.809
		c1.3,0.891,2.984,1.074,4.168,1.074c1.496,0,3.053-0.299,4.284-0.84c3.312-1.432,3.95-4.576,3.904-9.21
		c-0.041-1.552-0.144-3.461-0.293-5.468c1.523-0.098,3.191-0.23,4.772-0.403l0.006,0.633c0.057,4.25,0.108,7.917,0.988,10.315
		c0.673,1.761,2.22,3.853,5.768,3.853c0.799,0,1.604-0.104,2.375-0.224c2.646-0.49,5.072-1.363,5.773-6.665
		c0.431-3.277,0.299-8.757-0.276-14.242c0.702,0.218,1.586,0.305,2.686,0.374c1.655,0.097,4.277,0.137,6.583,0.137
		c1.057,0,2.052-0.005,2.857-0.022c1.575-0.047,2.736-0.265,3.588-0.817c0.12,5.101,0.396,10.264,0.943,13.5
		c1.082,5.924,3.42,6.59,5.968,6.791c2.255,0.098,4.398,0,5.698-0.465c0.846,0.264,1.753,0.366,2.559,0.437
		c0.558,0.052,1.157,0.085,1.787,0.085c2.681,0,6.638-0.563,10.26-3.242c3.426-2.541,6.187-6.767,7.704-11.419
		c0.034,1.524,0.115,2.984,0.24,4.278c0.555,5.641,2.129,8.728,5.477,10.655c2.38,1.34,5.496,2.099,8.566,2.099
		c1.357,0,2.668-0.149,3.876-0.448c4.449-1.122,7.623-4.349,9.716-9.856c0.392-1.018,0.725-2.226,1.048-3.433
		c0.528,5.692,3,10.632,7.278,13.99c5.014,3.934,12.189,5.244,17.883,5.957c0.528,0.068,1.012,0.115,1.473,0.115
		c2.068,0,3.426-1.093,4.356-3.53c0.84-2.059,1.577-5.371,2.197-8.557c0.781,4.438,2.897,8.348,6.233,11.292
		c4.807,4.222,11.926,5.958,17.582,6.993c0.667,0.126,1.266,0.218,1.817,0.218c2.414,0,3.531-1.758,4.222-3.277
		c1.286-2.668,2.518-7.556,3.266-10.592c-0.128,0.989-0.276,2.001-0.345,2.875c-0.403,5.658,0.654,8.97,3.646,11.443
		c2.851,2.288,7.199,3.771,11.075,3.771c0.355,0,0.7-0.011,1.057-0.034c4.646-0.356,8.371-2.989,11.407-8.05
		c2.934-4.935,5.646-12.984,6.292-18.729C412.948,91.636,411.925,88.267,408.934,85.483z M166.616,96.477
		c-0.587,0.626-1.259,1.11-1.949,1.506c-0.955-5.745-2.553-14.064-3.755-19.584c1.035-0.081,2.042,0.063,2.789,0.368
		c2.271,0.988,4.319,4.41,4.871,8.154C169.163,90.548,168.357,94.412,166.616,96.477z M213.5,83.408
		c-0.104-2.139-0.156-4.376,0.005-6.199c0.311-3.864,1.391-5.088,1.662-5.174h0.012l0.149,0.109
		c1.115,1.098,2.462,5.101,3.048,10.804C216.738,83.051,215.047,83.211,213.5,83.408z M267.015,91.434
		c-0.69,0.518-1.426,0.875-2.163,1.145c0.094-5.82,0.007-14.283-0.2-19.935c1.11,0.139,1.983,0.42,2.663,0.851
		c2.046,1.375,3.45,5.1,3.322,8.884C270.579,85.983,269.063,89.727,267.015,91.434z M300.802,78.515
		c-0.242,3.702-0.815,9.407-1.427,13.161c-0.553,3.319-1.081,4.818-1.507,5.549c-0.321-1.093-0.298-3.307-0.218-5.555
		c0.149-3.559,0.633-8.976,1-12.5c0.392-3.163,0.805-5.112,1.276-6.147c0.138-0.316,0.253-0.46,0.323-0.518
		c0.045,0.058,0.115,0.179,0.184,0.38C300.688,73.546,300.951,74.788,300.802,78.515z M334.392,100.065
		c-1.195-0.259-2.356-0.626-3.288-1.259c-1.989-1.334-3.3-4.231-3.381-7.279c0.139,1.753,0.941,2.598,1.645,3.024
		c0.84,0.477,2.645,0.741,5.863,1.069C334.979,97.115,334.702,98.628,334.392,100.065z M366.981,106.182
		c-1.183-0.321-2.344-0.763-3.242-1.448c-1.896-1.433-2.956-4.357-2.909-7.371c0.081,1.667,0.771,2.576,1.426,3.024
		c0.818,0.523,2.612,0.892,5.818,1.408C367.742,103.273,367.374,104.763,366.981,106.182z M398.067,96.045
		c-0.853,3.501-2.369,8.975-3.692,12.725c-1.172,3.358-1.99,4.726-2.472,5.312c-0.161-1.022,0.173-3,0.712-5.612
		c0.748-3.473,2.163-8.733,3.128-12.148c0.943-3.042,1.679-4.898,2.335-5.853c0.207-0.316,0.369-0.431,0.426-0.46
		c0.034,0.041,0.092,0.161,0.139,0.419C398.779,91.089,398.86,92.395,398.067,96.045z"/>
	<path fill="#F26522" d="M429.979,84.465c-1.92-1.662-5.646-2.41-7.854-2.41c-3.162,0.161-4.072,2.271-5.508,7.423
		c-1.415,5.118-3.75,14.651-5.314,21.34c-1.459,6.013-1.919,8.348-1.022,10.188c-0.196,0.011-0.392,0.034-0.633,0.079
		c-1.195,0.287-2.209,1.105-2.874,2.346c-0.483,0.954-0.633,1.875-0.46,2.863c0.24,1.174,0.873,2.163,1.794,2.819
		c0.884,0.666,2.173,1.161,3.541,1.356c0.471,0.068,0.931,0.103,1.367,0.103c1.083,0,1.979-0.251,2.681-0.748
		c1.311-0.839,1.99-2.414,2.161-3.473c0.219-0.84,0.242-2.059-1-3.334c1.76-0.84,2.576-2.852,4.726-8.212
		c3.739-9.2,6.395-15.955,7.89-20.072C431.405,89.457,432.303,86.598,429.979,84.465z"/>
</g>
<g>
	<path fill="#F9ED32" d="M72.553,88.881c3.307-1.012,9.953-2.875,13.483-3.283c3.605-0.374,4.117,0.742,4.531,1.996
		c0.501,1.294,0.828,2.76,0.673,3.68c-0.144,0.973-0.92,1.42-4.933,2.604c-2.226,0.69-5.509,1.564-8.66,2.444
		c0.822,2.012,1.719,4.502,2.668,7.17c2.989-1.013,6.325-2.04,8.55-2.592c3.754-0.983,4.577-0.949,5.134-0.172
		c0.599,0.707,1.064,2.134,1.312,3.502c0.288,1.286,0.419,2.494-2.467,3.92c-2.299,1.14-6.577,2.416-9.671,3.395
		c0.719,2.103,1.391,4.104,1.904,5.761c1.897,5.957,1.902,7.268,0.891,8.279c-1.075,1-3.168,1.69-5.112,2.231
		c-1.966,0.494-3.72,0.805-6.262-3.829c-2.604-4.6-6.003-14.169-7.987-19.971c-1.914-5.818-2.397-7.94-2.397-9.452
		c0.005-1.518,0.425-2.41,2.063-3.307C66.814,90.957,71.713,89.123,72.553,88.881z"/>
	<path fill="#F9ED32" d="M94.006,85.868c0.017-1.496,0.478-2.363,2.214-3.191c1.644-0.862,4.588-1.604,6.313-1.65
		c1.777-0.069,2.398,0.455,4.278,6.125c1.938,5.646,5.059,16.438,6.635,22.55c1.628,6.039,1.564,7.339,0.455,8.304
		c-1.064,0.931-3.232,1.517-5.129,1.943c-1.979,0.379-3.737,0.599-6.071-4.141c-2.271-4.749-5.209-14.472-6.803-20.377
		C94.293,89.519,93.92,87.38,94.006,85.868z"/>
	<path fill="#F9ED32" d="M138.964,73.639c1.512,0.454,2.127,1.621,3.433,7.738c1.305,6.106,3.243,17.158,4.14,23.034
		c0.823,5.89,0.587,6.671-0.949,7.246c-1.408,0.62-3.995,0.989-5.761,1.091c-0.373,0.07-2.719,0.034-4.749-3.229
		c-1.65-2.728-4.444-6.752-6.957-11.121c0.725,2.788,1.368,5.475,1.822,7.591c1.443,6.083,1.328,7.383,0.189,8.313
		c-1.075,0.896-3.26,1.426-5.169,1.794c-1.972,0.321-3.731,0.471-5.917-4.336c-2.127-4.796-4.743-14.61-6.158-20.562
		c-1.426-5.968-1.719-8.112-1.599-9.62c0.064-1.495,0.553-2.346,2.3-3.121c1.559-0.714,4.06-1.213,5.871-1.415
		c0.983-0.161,2.352-0.271,5.221,3.979c1.88,2.794,4.375,7.308,6.675,11.741c-0.943-4.588-1.771-9.257-1.919-12.351
		c-0.254-5.215,1.552-5.818,3.633-6.336C133.456,73.994,137.757,73.299,138.964,73.639z"/>
	<path fill="#F9ED32" d="M166.069,68.67c4.059,0.242,7.854,1.593,10.862,5.17c3.013,3.57,5.209,9.372,5.14,15.058
		c-0.069,5.676-2.283,11.236-5.434,14.593c-3.162,3.357-7.308,4.531-10.344,4.785c-1.114,0.103-2.058,0.126-2.84-0.07
		c0.012,0.07-0.058,0.07-0.051,0.081c-1.134,0.829-3.335,1.219-5.308,1.482c-1.92,0.186-3.674,0.23-5.548-4.691
		c-1.806-4.932-3.808-14.88-4.842-20.906c-1.052-6.043-1.213-8.2-1.064-9.689c0.213-1.501,0.748-2.317,2.535-2.984
		c1.012-0.408,4.664-1.237,6.24-1.535c1.109-0.225,2.742-0.599,4.657-0.875C161.918,68.826,164.04,68.59,166.069,68.67z
		 M159.354,77.381c1.357,5.929,3.398,16.549,4.37,22.598c0.017,0.11,0.046,0.293,0.074,0.472c1.432-0.639,2.91-1.397,4.135-2.714
		c2.024-2.403,2.99-6.704,2.317-10.792c-0.609-4.088-2.909-8.027-5.739-9.269c-1.552-0.633-3.271-0.57-4.829-0.34
		C159.612,77.347,159.486,77.364,159.354,77.381z"/>
	<path fill="#F9ED32" d="M195.572,81.7c2.334-0.075,2.742,0.259,2.989,0.833c0.242,0.592,0.375,1.478,0.104,2.048
		c-0.213,0.557-0.765,0.776-3.197,1.058c-2.484,0.264-6.894,0.633-9.28,0.701c-2.444,0.069-2.858-0.126-3.1-0.574
		c-0.189-0.523-0.218-1.363-0.149-1.916c0.075-0.494,0.254-0.696,0.626-0.85c0.299-0.167,0.817-0.225,3.192-0.524
		C189.127,82.171,193.307,81.722,195.572,81.7z"/>
	<path fill="#F9ED32" d="M224.298,65.588c4.192,2.375,5.895,7.32,6.958,13.834c1.063,6.515,1.553,14.674,0.972,19.067
		c-0.581,4.398-2.224,4.98-4.565,5.411c-2.271,0.368-5.221,0.603-6.487-2.703c-0.924-2.536-0.828-7.169-0.919-12.091
		c-2.398,0.344-5.308,0.552-7.78,0.696c0.207,2.512,0.357,4.967,0.409,6.888c0.051,5.168-0.897,6.906-3.002,7.826
		c-2.105,0.914-5.371,1.022-7.015-0.104c-1.639-1.087-1.586-3.375-1.915-8.279c-0.396-4.91-1.139-12.374-0.23-18.216
		c0.846-5.841,3.3-10.074,7.946-12.288c2.122-1.029,4.617-1.655,7.205-1.789C218.923,63.69,222.005,64.22,224.298,65.588z
		 M212.131,77.323c-0.195,2.237-0.091,5.055,0.087,7.993c2.472-0.386,5.404-0.656,7.83-0.759c-0.459-6.054-1.874-11.511-3.605-13.23
		c-0.408-0.396-0.816-0.558-1.27-0.541C213.793,70.797,212.471,73.092,212.131,77.323z"/>
	<path fill="#F9ED32" d="M245.906,79.543c2.323,0.132,2.703,0.495,2.899,1.092c0.189,0.609,0.242,1.506-0.081,2.047
		c-0.259,0.54-0.833,0.708-3.265,0.77c-2.501,0.052-6.918,0.034-9.292-0.103c-2.433-0.149-2.829-0.374-3.031-0.846
		c-0.137-0.535-0.098-1.374,0.023-1.919c0.121-0.484,0.31-0.673,0.696-0.799c0.315-0.133,0.833-0.145,3.214-0.237
		C239.456,79.451,243.653,79.366,245.906,79.543z"/>
	<path fill="#F9ED32" d="M271.178,63.909c3.943,0.961,7.43,2.956,9.752,6.998c2.312,4.053,3.438,10.148,2.356,15.731
		c-1.091,5.572-4.253,10.649-7.969,13.403c-3.69,2.744-7.958,3.158-10.994,2.87c-1.11-0.092-2.034-0.236-2.771-0.568
		c-0.005,0.067-0.062,0.067-0.062,0.067c-1.266,0.623-3.479,0.623-5.453,0.524c-1.919-0.149-3.639-0.42-4.582-5.589
		c-0.885-5.169-1.052-15.318-0.995-21.43c0.052-6.118,0.265-8.279,0.678-9.717c0.473-1.432,1.14-2.146,3.013-2.484
		c1.06-0.225,4.786-0.397,6.371-0.414c1.127-0.029,2.782-0.104,4.698-0.034C267.072,63.323,269.211,63.467,271.178,63.909z
		 M263.064,71.298c0.281,6.071,0.375,16.882,0.236,23c-0.007,0.115-0.013,0.299-0.018,0.483c1.53-0.379,3.111-0.856,4.537-1.943
		c2.413-2.007,4.14-6.072,4.221-10.212c0.125-4.129-1.428-8.413-3.98-10.131c-1.402-0.892-3.104-1.139-4.668-1.185
		C263.328,71.303,263.186,71.298,263.064,71.298z"/>
	<path fill="#F9ED32" d="M308.666,67.768c2.508,1.655,4.233,4.025,4.521,9.378c0.287,5.296-0.84,13.489-2.877,18.883
		c-2.058,5.382-4.979,8.004-8.692,8.941c-3.784,0.938-8.35,0.179-11.326-1.507c-2.911-1.691-4.211-4.364-4.718-9.516
		c-0.505-5.204-0.228-12.943,0.656-18.061c0.955-5.164,2.531-7.762,4.841-9.205c2.358-1.444,5.463-1.794,8.661-1.559
		c0.184,0.023,0.39,0.034,0.597,0.058C303.284,65.456,306.299,66.238,308.666,67.768z M300.088,71.241
		c-0.528,0.017-1.161,0.316-1.655,1.415c-0.494,1.109-0.931,2.996-1.392,6.572c-0.392,3.634-0.873,9.016-1.012,12.616
		c-0.128,3.605-0.047,5.411,0.413,6.48c0.472,1.068,1.311,1.391,2.093,0.5c0.771-0.828,1.496-2.817,2.115-6.675
		c0.646-3.91,1.231-9.644,1.462-13.289c0.173-3.667-0.068-5.255-0.447-6.255c-0.358-0.943-0.863-1.293-1.451-1.351
		C300.214,71.252,300.146,71.246,300.088,71.241z"/>
	<path fill="#F9ED32" d="M347.25,74.84c1.587,2.109,0.759,5.128-0.703,6.215c-1.471,1.151-3.656,0.34-6.335-0.351
		c-2.692-0.621-5.936-1.19-8.671,0.34c-2.817,1.523-5.095,5.077-5.463,9.033c-0.448,3.932,1.059,8.262,3.933,10.217
		c1.496,1.018,3.416,1.449,5.21,1.743c0.609-2.462,1.08-5.25,1.438-7.436c-0.758-0.138-5.818-0.495-6.83-1.069
		c-1.716-1.035-0.633-5.192,0.172-5.802c1.689-1.282,9.601,0.155,11.959,0.937c3.771,1.134,3.521,6.469,2.933,9.281
		c-0.495,2.777-1.53,8.384-2.668,11.177c-1.08,2.796-2.335,2.749-4.255,2.495c-6.532-0.815-12.754-2.218-17.111-5.656
		c-4.187-3.307-6.844-8.349-6.888-14.818c-0.036-6.423,2.438-14.162,6.933-17.945c4.404-3.738,10.74-3.456,15.858-2.587
		C341.821,71.408,345.743,72.689,347.25,74.84z"/>
	<path fill="#F9ED32" d="M381.289,81.82c1.459,2.202,0.447,5.169-1.08,6.164c-1.543,1.058-3.692,0.115-6.337-0.724
		c-2.657-0.782-5.876-1.547-8.719-0.178c-2.932,1.351-5.427,4.766-6.025,8.694c-0.667,3.903,0.575,8.314,3.348,10.429
		c1.438,1.116,3.334,1.655,5.128,2.048c0.748-2.416,1.392-5.169,1.875-7.337c-0.758-0.178-5.808-0.839-6.786-1.472
		c-1.666-1.127-0.332-5.215,0.508-5.778c1.78-1.179,9.637,0.724,11.959,1.65c3.727,1.357,3.141,6.665,2.393,9.441
		c-0.667,2.737-2.048,8.279-3.348,11.004c-1.253,2.715-2.518,2.6-4.414,2.233c-6.522-1.197-12.663-2.979-16.826-6.671
		c-4.001-3.541-6.381-8.729-6.036-15.197c0.346-6.411,3.277-13.995,8.016-17.503c4.635-3.466,10.971-2.818,16.053-1.644
		C376.032,78.071,379.897,79.583,381.289,81.82z"/>
	<path fill="#F9ED32" d="M407.509,86.95c2.207,2.058,3.541,4.697,2.921,10.021c-0.609,5.273-3.162,13.157-6.141,18.124
		c-2.979,4.944-6.36,7.039-10.246,7.314c-3.946,0.276-8.373-1.266-11.064-3.439c-2.61-2.16-3.438-5.014-3.058-10.176
		c0.402-5.222,2.012-12.8,3.761-17.688c1.828-4.928,3.853-7.228,6.404-8.251c2.61-1.018,5.762-0.829,8.924-0.052
		c0.185,0.052,0.392,0.109,0.588,0.155C402.529,83.741,405.38,85.029,407.509,86.95z M398.319,88.904
		c-0.539-0.086-1.206,0.109-1.886,1.109c-0.701,0.995-1.449,2.784-2.506,6.228c-1.012,3.519-2.427,8.739-3.198,12.266
		c-0.759,3.53-0.978,5.335-0.701,6.462c0.288,1.138,1.07,1.587,2.001,0.839c0.921-0.677,1.956-2.518,3.267-6.21
		c1.323-3.737,2.887-9.291,3.747-12.845c0.795-3.588,0.818-5.198,0.633-6.244c-0.206-0.99-0.643-1.421-1.229-1.576
		C398.447,88.933,398.39,88.915,398.319,88.904z"/>
	<path fill="#F9ED32" d="M428.565,86c1.437,1.346,1.046,3.18-0.978,8.654c-2.014,5.531-5.717,14.634-7.914,19.981
		c-2.184,5.37-2.874,7.038-4.241,7.543c-1.404,0.564-3.429,0-4.302-1.266c-0.793-1.321-0.391-3.402,1.08-9.36
		c1.428-6.025,3.852-15.904,5.36-21.286c1.518-5.376,2.207-6.238,4.174-6.336C423.746,83.925,427.036,84.695,428.565,86z
		 M413.419,123.57c0.426,0.195,1.266,0.46,1.864,0.909c0.505,0.471,0.779,1.057,0.573,1.873c-0.16,0.91-0.678,2.061-1.541,2.612
		c-0.85,0.609-1.909,0.586-3.047,0.424c-1.082-0.149-2.151-0.552-2.84-1.08c-0.748-0.541-1.105-1.276-1.231-1.933
		c-0.115-0.667,0.013-1.276,0.335-1.92c0.345-0.644,0.965-1.334,1.909-1.563c0.92-0.149,2.196,0.183,2.897,0.332
		C413.006,123.432,413.006,123.432,413.419,123.57z"/>
</g>
</svg>
